<svg data-name="Group 1" xmlns="http://www.w3.org/2000/svg" width="100" height="100">
  <rect data-name="Rectangle 1" width="100" height="100" rx="8" fill="#1e88e5"/>
  <path data-name="Path 1" d="M41.24 69.739a10.119 10.119 0 007.1-2.631 8.445 8.445 0 002.871-6.482v-2.923l-9.56.585a10.186 10.186 0 00-5.588 1.754 4.848 4.848 0 00-1.977 4.058 4.957 4.957 0 001.96 4.092 8.142 8.142 0 005.194 1.547zm-1.341 5.09a12.383 12.383 0 01-8.614-2.958 9.96 9.96 0 01-3.284-7.772 9 9 0 013.387-7.358q3.387-2.751 9.577-3.095l10.248-.585v-2.992a6.542 6.542 0 00-2.063-5.124 8.333 8.333 0 00-5.778-1.854 9.435 9.435 0 00-5.537 1.5 6.63 6.63 0 00-2.716 4.171h-5.777a10.575 10.575 0 014.144-7.858q3.834-3.078 10.024-3.078 6.293 0 9.99 3.164a10.611 10.611 0 013.7 8.494v24.725h-5.681v-6.155h-.138a12.372 12.372 0 01-4.746 4.918 12.981 12.981 0 01-6.736 1.857zm25.207-.619V38.446h5.983V74.21zm2.992-41.782a3.57 3.57 0 01-2.614-1.1 3.57 3.57 0 01-1.1-2.614 3.553 3.553 0 011.1-2.631A3.6 3.6 0 0168.098 25a3.639 3.639 0 012.648 1.083 3.553 3.553 0 011.1 2.631 3.57 3.57 0 01-1.1 2.614 3.61 3.61 0 01-2.649 1.1z" fill="#fff"/>
</svg>
