<svg xmlns="http://www.w3.org/2000/svg" width="1000" height="872.875" viewBox="0 0 264.583 230.948">
  <g transform="translate(413.555 -336.957) scale(1.32125)">
    <path d="M-299.036 399.581c-6.886 0-13.966 5.518-13.966 15.176 0 8.829 6.225 15.065 13.966 15.065 6.39 0 9.237-4.288 9.237-4.288v1.869c0 .884.836 1.87 1.87 1.87h4.618V400.24h-6.488v3.684s-2.871-4.344-9.237-4.344zm1.156 5.936c5.668 0 8.641 4.986 8.641 9.238 0 4.736-3.53 9.233-8.63 9.233-4.262 0-8.532-3.452-8.532-9.296 0-5.275 3.674-9.175 8.52-9.175zM-274.293 429.272c-.997 0-1.87-.715-1.87-1.869v-27.162h6.488v3.593c1.47-2.21 4.343-4.262 8.752-4.262 7.206 0 11.043 5.744 11.043 11.116v18.584h-4.51c-1.181 0-1.978-.99-1.978-1.979v-15.176c0-2.977-1.825-6.593-6.044-6.593-4.552 0-7.263 4.302-7.263 8.353v15.395zM-230.966 399.581c-6.885 0-13.966 5.518-13.966 15.176 0 8.829 6.225 15.065 13.966 15.065 6.39 0 9.237-4.288 9.237-4.288v1.869c0 .884.836 1.87 1.87 1.87h4.619v-43.548h-6.489v18.2s-2.871-4.344-9.237-4.344zm1.156 5.936c5.668 0 8.642 4.986 8.642 9.238 0 4.736-3.53 9.233-8.63 9.233-4.263 0-8.533-3.452-8.533-9.296 0-5.275 3.675-9.175 8.52-9.175zM-206.223 429.272c-.997 0-1.87-.715-1.87-1.869v-27.162h6.489v4.838c1.116-2.71 3.526-5.168 7.807-5.168 1.194 0 2.31.22 2.31.22v6.708s-1.394-.55-3.08-.55c-4.552 0-7.037 4.302-7.037 8.353v14.63zM-152.119 429.272c-.997 0-1.87-.715-1.87-1.869v-27.162h6.489v29.031zM-128.476 399.581c-6.885 0-13.965 5.518-13.965 15.176 0 8.829 6.225 15.065 13.965 15.065 6.39 0 9.238-4.288 9.238-4.288v1.869c0 .884.835 1.87 1.87 1.87h4.618v-43.548h-6.488v18.2s-2.872-4.344-9.238-4.344zm1.156 5.936c5.669 0 8.642 4.986 8.642 9.238 0 4.736-3.53 9.233-8.63 9.233-4.263 0-8.533-3.452-8.533-9.296 0-5.275 3.675-9.175 8.521-9.175z"/>
    <circle r="4.291" cy="389.688" cx="-150.795"/>
    <path d="M-174.376 399.571c-7.212 0-15.134 5.383-15.134 15.134 0 8.886 6.748 15.118 15.118 15.118 10.315 0 15.352-8.292 15.352-15.062 0-8.307-6.486-15.19-15.337-15.19zm.023 6.06c4.987 0 8.706 4.019 8.706 9.092 0 5.162-3.948 9.145-8.691 9.145-4.403 0-8.683-3.583-8.683-9.058 0-5.566 4.07-9.18 8.668-9.18z"/>
  </g>
  <path d="M196.866 44.673L218.8 6.68c1.238-2.13.49-4.836-1.612-6.073-2.1-1.238-4.835-.519-6.044 1.611l-22.221 38.484c-16.954-7.743-36.037-12.06-56.56-12.06-20.523 0-39.606 4.317-56.56 12.06L53.582 2.217A4.431 4.431 0 0047.507.606a4.431 4.431 0 00-1.612 6.073l21.933 37.994C30.007 65.167 4.39 103.45.16 148.266h264.406c-4.23-44.816-29.848-83.099-67.699-103.593zM71.657 111.135c-6.13 0-11.081-4.98-11.081-11.082 0-6.13 4.98-11.082 11.081-11.082 6.131 0 11.082 4.98 11.082 11.082.029 6.102-4.95 11.082-11.082 11.082zm121.38 0c-6.13 0-11.08-4.98-11.08-11.082 0-6.13 4.979-11.082 11.08-11.082 6.132 0 11.083 4.98 11.083 11.082.028 6.102-4.951 11.082-11.082 11.082z" fill="#32de84"/>
</svg>
